<?xml version="1.0" encoding="UTF-8"?>
<!DOCTYPE svg PUBLIC "-//W3C//DTD SVG 1.1//EN" "http://www.w3.org/Graphics/SVG/1.1/DTD/svg11.dtd">
<svg xmlns="http://www.w3.org/2000/svg" version="1.1" width="145px" height="144px" style="shape-rendering:geometricPrecision; text-rendering:geometricPrecision; image-rendering:optimizeQuality; fill-rule:evenodd; clip-rule:evenodd" xmlns:xlink="http://www.w3.org/1999/xlink">
<g><path style="opacity:0.012" fill="#000000" d="M 76.5,13.5 C 77.8333,14.1667 77.8333,14.1667 76.5,13.5 Z"/></g>
<g><path style="opacity:1" fill="#be9a50" d="M 75.5,14.5 C 73.712,14.2148 72.0453,14.5481 70.5,15.5C 73.1964,19.5298 74.6964,23.8631 75,28.5C 73.9967,25.1598 72.4967,22.1598 70.5,19.5C 69.8333,24.8333 69.1667,30.1667 68.5,35.5C 68.3337,28.4921 68.5004,21.4921 69,14.5C 71.2735,13.1888 73.4402,13.1888 75.5,14.5 Z"/></g>
<g><path style="opacity:0.004" fill="#fefffe" d="M 60.5,18.5 C 61.8333,19.1667 61.8333,19.1667 60.5,18.5 Z"/></g>
<g><path style="opacity:1" fill="#b68b2a" d="M 75.5,14.5 C 75.8333,14.5 76.1667,14.5 76.5,14.5C 76.5,14.8333 76.5,15.1667 76.5,15.5C 76.8245,22.6866 76.4912,29.6866 75.5,36.5C 75.2059,31.5881 73.5392,27.2548 70.5,23.5C 70.5,22.1667 70.5,20.8333 70.5,19.5C 72.4967,22.1598 73.9967,25.1598 75,28.5C 74.6964,23.8631 73.1964,19.5298 70.5,15.5C 72.0453,14.5481 73.712,14.2148 75.5,14.5 Z"/></g>
<g><path style="opacity:0.008" fill="#000000" d="M 51.5,30.5 C 50.8333,29.1667 50.8333,29.1667 51.5,30.5 Z"/></g>
<g><path style="opacity:0.016" fill="#000000" d="M 93.5,29.5 C 94.8333,30.1667 94.8333,30.1667 93.5,29.5 Z"/></g>
<g><path style="opacity:0.004" fill="#000000" d="M 55.5,30.5 C 56.8333,31.1667 56.8333,31.1667 55.5,30.5 Z"/></g>
<g><path style="opacity:0.008" fill="#000000" d="M 57.5,31.5 C 58.8333,32.1667 58.8333,32.1667 57.5,31.5 Z"/></g>
<g><path style="opacity:1" fill="#cab074" d="M 51.5,30.5 C 52.9587,30.4326 54.2921,30.7659 55.5,31.5C 55.8417,32.3382 56.5084,32.6716 57.5,32.5C 59.7879,33.0735 61.9546,34.0735 64,35.5C 65.4509,35.2642 66.9509,35.2642 68.5,35.5C 66.3609,36.1581 64.3609,37.1581 62.5,38.5C 62.1667,38.5 61.8333,38.5 61.5,38.5C 61.3284,39.4916 61.6618,40.1583 62.5,40.5C 62.5,40.8333 62.5,41.1667 62.5,41.5C 61.5772,45.4723 61.5772,45.8056 62.5,42.5C 63.1667,43.8333 63.8333,45.1667 64.5,46.5C 64.9175,47.2216 65.5842,47.7216 66.5,48C 66.3974,50.6252 66.0641,53.4586 65.5,56.5C 64.5418,54.6976 63.8751,52.6976 63.5,50.5C 61.8531,47.7971 60.6864,44.7971 60,41.5C 58.6485,43.5938 58.1485,45.9272 58.5,48.5C 56.7956,50.7594 55.7956,50.0927 55.5,46.5C 56.8333,46.1667 56.8333,45.8333 55.5,45.5C 54.962,43.8828 54.6287,42.2161 54.5,40.5C 56.0847,39.9976 56.5847,38.9976 56,37.5C 55.2828,38.0442 54.7828,38.7109 54.5,39.5C 53.6618,39.1583 53.3284,38.4916 53.5,37.5C 54.1667,37.5 54.5,37.1667 54.5,36.5C 55.8333,35.8333 55.8333,35.1667 54.5,34.5C 53.8333,33.1667 53.1667,33.1667 52.5,34.5C 51.5084,34.3284 50.8417,34.6618 50.5,35.5C 49.209,35.2627 48.209,35.596 47.5,36.5C 45.8333,36.5 44.1667,36.5 42.5,36.5C 44.6723,35.1983 47.0056,34.0317 49.5,33C 48.6598,31.3335 49.1598,31.1669 51,32.5C 51.4643,31.9056 51.631,31.2389 51.5,30.5 Z M 50.5,35.5 C 50.8417,34.6618 51.5084,34.3284 52.5,34.5C 52.5,35.1667 52.5,35.8333 52.5,36.5C 51.8333,36.1667 51.1667,35.8333 50.5,35.5 Z M 61.5,36.5 C 60.1667,36.8333 60.1667,37.1667 61.5,37.5C 61.5,37.8333 61.5,38.1667 61.5,38.5C 60.8826,38.6107 60.3826,38.944 60,39.5C 59.6905,38.2341 59.1905,37.0674 58.5,36C 59.7494,35.2599 60.7494,35.4265 61.5,36.5 Z"/></g>
<g><path style="opacity:1" fill="#ab8028" d="M 70.5,23.5 C 73.5392,27.2548 75.2059,31.5881 75.5,36.5C 76.6583,39.483 78.325,42.1497 80.5,44.5C 80.8333,44.3333 81.1667,44.1667 81.5,44C 79.0779,41.9973 78.2446,39.4973 79,36.5C 80.9562,36.7845 83.1229,36.7845 85.5,36.5C 85.6602,38.1992 85.4935,39.8659 85,41.5C 84.0705,39.4547 82.5705,38.6213 80.5,39C 81.6687,41.0065 82.3354,43.1732 82.5,45.5C 80.8333,45.5 79.1667,45.5 77.5,45.5C 75.4427,40.85 73.2761,36.1834 71,31.5C 70.5026,28.854 70.3359,26.1873 70.5,23.5 Z"/></g>
<g><path style="opacity:0.008" fill="#000000" d="M 52.5,34.5 C 53.1667,34.5 53.8333,34.5 54.5,34.5C 54.5,35.1667 54.5,35.8333 54.5,36.5C 54.1667,36.5 53.8333,36.5 53.5,36.5C 53.1667,36.5 52.8333,36.5 52.5,36.5C 52.5,35.8333 52.5,35.1667 52.5,34.5 Z"/></g>
<g><path style="opacity:0.012" fill="#000000" d="M 41.5,36.5 C 40.8333,35.1667 40.8333,35.1667 41.5,36.5 Z"/></g>
<g><path style="opacity:1" fill="#a87d25" d="M 70.5,19.5 C 70.5,20.8333 70.5,22.1667 70.5,23.5C 70.3359,26.1873 70.5026,28.854 71,31.5C 73.2761,36.1834 75.4427,40.85 77.5,45.5C 77.5,45.8333 77.5,46.1667 77.5,46.5C 76.6805,49.3054 76.1805,52.3054 76,55.5C 73.873,50.4358 71.373,45.6024 68.5,41C 67.6683,40.3123 67.0016,40.479 66.5,41.5C 67.0402,42.7481 67.7069,43.9148 68.5,45C 66.9419,45.21 65.6085,45.71 64.5,46.5C 63.8333,45.1667 63.1667,43.8333 62.5,42.5C 62.5,42.1667 62.5,41.8333 62.5,41.5C 62.5,41.1667 62.5,40.8333 62.5,40.5C 62.5,39.8333 62.5,39.1667 62.5,38.5C 64.3609,37.1581 66.3609,36.1581 68.5,35.5C 69.1667,30.1667 69.8333,24.8333 70.5,19.5 Z"/></g>
<g><path style="opacity:1" fill="#eecd60" d="M 41.5,36.5 C 41.8333,36.5 42.1667,36.5 42.5,36.5C 44.1667,36.5 45.8333,36.5 47.5,36.5C 49.9754,37.6874 50.9754,39.6874 50.5,42.5C 49.8333,45.8333 49.1667,49.1667 48.5,52.5C 47.8333,53.5 47.1667,54.5 46.5,55.5C 45.8333,55.5 45.5,55.8333 45.5,56.5C 44.8333,56.1667 44.1667,55.8333 43.5,55.5C 44.9279,52.6967 45.5946,49.6967 45.5,46.5C 44.1667,46.5 42.8333,46.5 41.5,46.5C 40.1667,43.1667 40.1667,39.8333 41.5,36.5 Z"/></g>
<g><path style="opacity:0.161" fill="#aca792" d="M 104.5,44.5 C 104.5,41.8333 104.5,39.1667 104.5,36.5C 102.5,36.5 100.5,36.5 98.5,36.5C 100.556,35.7839 102.723,35.1172 105,34.5C 105.808,38.0267 105.641,41.3601 104.5,44.5 Z"/></g>
<g><path style="opacity:1" fill="#f8d24c" d="M 98.5,36.5 C 100.5,36.5 102.5,36.5 104.5,36.5C 104.5,39.1667 104.5,41.8333 104.5,44.5C 104.5,44.8333 104.5,45.1667 104.5,45.5C 102.143,45.6633 99.8098,45.4966 97.5,45C 96.7476,44.3292 96.4142,43.4959 96.5,42.5C 97.8221,42.33 98.9887,42.6634 100,43.5C 100.409,41.3049 99.9094,39.3049 98.5,37.5C 98.5,37.1667 98.5,36.8333 98.5,36.5 Z"/></g>
<g><path style="opacity:0.999" fill="#c29c4d" d="M 76.5,15.5 C 77.4907,21.979 77.824,28.6457 77.5,35.5C 79.2012,35.0338 80.7012,35.0338 82,35.5C 83.9711,33.447 86.1378,32.7804 88.5,33.5C 89.404,34.209 89.7373,35.209 89.5,36.5C 88.5,36.5 87.5,36.5 86.5,36.5C 86.1486,39.0412 86.4819,40.7079 87.5,41.5C 88.3382,41.8417 88.6716,42.5084 88.5,43.5C 88.7678,45.099 88.4345,46.4324 87.5,47.5C 86.375,48.3478 86.375,49.3478 87.5,50.5C 86.6618,50.8417 86.3284,51.5084 86.5,52.5C 86.5,52.8333 86.5,53.1667 86.5,53.5C 85.8333,53.5 85.5,53.8333 85.5,54.5C 85.5,54.8333 85.5,55.1667 85.5,55.5C 84.8333,52.8333 84.1667,50.1667 83.5,47.5C 81.7354,46.5386 79.7354,46.2053 77.5,46.5C 77.5,46.1667 77.5,45.8333 77.5,45.5C 79.1667,45.5 80.8333,45.5 82.5,45.5C 82.3354,43.1732 81.6687,41.0065 80.5,39C 82.5705,38.6213 84.0705,39.4547 85,41.5C 85.4935,39.8659 85.6602,38.1992 85.5,36.5C 83.1229,36.7845 80.9562,36.7845 79,36.5C 78.2446,39.4973 79.0779,41.9973 81.5,44C 81.1667,44.1667 80.8333,44.3333 80.5,44.5C 78.325,42.1497 76.6583,39.483 75.5,36.5C 76.4912,29.6866 76.8245,22.6866 76.5,15.5 Z"/></g>
<g><path style="opacity:1" fill="#e6c560" d="M 93.5,30.5 C 94.347,31.9663 95.6803,32.7996 97.5,33C 96.4468,34.7493 96.7801,36.2493 98.5,37.5C 99.9094,39.3049 100.409,41.3049 100,43.5C 98.9887,42.6634 97.8221,42.33 96.5,42.5C 96.5393,40.7761 96.206,40.4427 95.5,41.5C 92.7995,41.787 90.7995,40.4537 89.5,37.5C 89.5,37.1667 89.5,36.8333 89.5,36.5C 89.7373,35.209 89.404,34.209 88.5,33.5C 89.5981,32.603 89.5981,31.7697 88.5,31C 90.18,31.7712 91.8467,31.6045 93.5,30.5 Z"/></g>
<g><path style="opacity:0.38" fill="#d0c094" d="M 89.5,37.5 C 90.7995,40.4537 92.7995,41.787 95.5,41.5C 95.5,41.8333 95.5,42.1667 95.5,42.5C 94.5041,42.4142 93.6708,42.7476 93,43.5C 90.816,46.3345 91.316,47.6678 94.5,47.5C 93.5,48.1667 92.5,48.8333 91.5,49.5C 90.1667,49.8333 90.1667,50.1667 91.5,50.5C 91.6716,51.4916 91.3382,52.1583 90.5,52.5C 90.1667,53.1667 89.8333,53.8333 89.5,54.5C 89.6716,55.4916 89.3382,56.1583 88.5,56.5C 88.5912,54.3023 87.9245,53.9689 86.5,55.5C 86.5,54.8333 86.1667,54.5 85.5,54.5C 85.5,53.8333 85.8333,53.5 86.5,53.5C 87.8333,53.1667 87.8333,52.8333 86.5,52.5C 86.3284,51.5084 86.6618,50.8417 87.5,50.5C 86.375,49.3478 86.375,48.3478 87.5,47.5C 88.4616,49.9856 89.2949,49.9856 90,47.5C 90.8442,45.5372 90.3442,44.2039 88.5,43.5C 88.6716,42.5084 88.3382,41.8417 87.5,41.5C 87.6596,39.847 88.3263,38.5137 89.5,37.5 Z"/></g>
<g><path style="opacity:0.008" fill="#000000" d="M 41.5,46.5 C 40.8333,47.1667 40.8333,47.1667 41.5,46.5 Z"/></g>
<g><path style="opacity:1" fill="#bf9c56" d="M 77.5,46.5 C 77.3345,50.5138 77.5012,54.5138 78,58.5C 78.3173,56.6992 78.984,56.3659 80,57.5C 81.0674,56.8095 82.2341,56.3095 83.5,56C 83.2964,53.3787 83.2964,50.5453 83.5,47.5C 84.1667,50.1667 84.8333,52.8333 85.5,55.5C 85.8333,55.5 86.1667,55.5 86.5,55.5C 86.5,56.1667 86.5,56.8333 86.5,57.5C 85.8826,57.3893 85.3826,57.056 85,56.5C 84.0027,58.3231 82.8361,59.9897 81.5,61.5C 80.1667,61.8333 80.1667,62.1667 81.5,62.5C 81.3284,63.4916 81.6618,64.1583 82.5,64.5C 82.1583,65.3382 81.4916,65.6716 80.5,65.5C 80.6309,64.6236 80.2975,63.9569 79.5,63.5C 77.0276,64.7665 74.6943,64.7665 72.5,63.5C 74.1992,63.6602 75.8659,63.4935 77.5,63C 78.6956,62.3457 78.6956,61.8457 77.5,61.5C 75.3432,62.0505 73.3432,62.7171 71.5,63.5C 68.9931,63.6322 68.3264,64.6322 69.5,66.5C 69.1667,66.5 68.8333,66.5 68.5,66.5C 67.603,65.4019 66.7697,65.4019 66,66.5C 65.6667,65.8333 65.3333,65.1667 65,64.5C 64.7216,65.4158 64.2216,66.0825 63.5,66.5C 62.7659,65.2921 62.4326,63.9587 62.5,62.5C 64.1992,62.6602 65.8659,62.4935 67.5,62C 64.5409,60.9543 63.8742,59.1209 65.5,56.5C 67.3786,56.3932 67.7119,56.8932 66.5,58C 67.0442,58.7172 67.7109,59.2172 68.5,59.5C 68.5,55.1667 68.5,50.8333 68.5,46.5C 67.1667,46.5 65.8333,46.5 64.5,46.5C 65.6085,45.71 66.9419,45.21 68.5,45C 67.7069,43.9148 67.0402,42.7481 66.5,41.5C 67.0016,40.479 67.6683,40.3123 68.5,41C 71.373,45.6024 73.873,50.4358 76,55.5C 76.1805,52.3054 76.6805,49.3054 77.5,46.5 Z M 72.5,63.5 C 72.1667,63.5 71.8333,63.5 71.5,63.5C 73.3432,62.7171 75.3432,62.0505 77.5,61.5C 78.6956,61.8457 78.6956,62.3457 77.5,63C 75.8659,63.4935 74.1992,63.6602 72.5,63.5 Z"/></g>
<g><path style="opacity:1" fill="#d9bc6c" d="M 50.5,35.5 C 51.1667,35.8333 51.8333,36.1667 52.5,36.5C 52.8333,36.5 53.1667,36.5 53.5,36.5C 53.5,36.8333 53.5,37.1667 53.5,37.5C 53.3284,38.4916 53.6618,39.1583 54.5,39.5C 54.5,39.8333 54.5,40.1667 54.5,40.5C 54.6287,42.2161 54.962,43.8828 55.5,45.5C 55.5,45.8333 55.5,46.1667 55.5,46.5C 55.7956,50.0927 56.7956,50.7594 58.5,48.5C 59.5392,50.9013 60.8726,53.2346 62.5,55.5C 61.2192,55.0161 60.2192,55.6827 59.5,57.5C 59.1667,57.5 58.8333,57.5 58.5,57.5C 58.5,56.8333 58.1667,56.5 57.5,56.5C 56.6618,56.1583 56.3284,55.4916 56.5,54.5C 56.4456,52.368 55.4456,51.0347 53.5,50.5C 53.5394,49.4168 53.8728,48.4168 54.5,47.5C 52.9613,43.5504 51.6279,39.5504 50.5,35.5 Z"/></g>
<g><path style="opacity:1" fill="#b98d2a" d="M 68.5,61.5 C 68.5,60.8333 68.5,60.1667 68.5,59.5C 69.3247,55.3528 69.8247,51.0195 70,46.5C 71.4422,51.4948 73.2755,56.3281 75.5,61C 73.1902,61.4966 70.8568,61.6633 68.5,61.5 Z"/></g>
<g><path style="opacity:0.012" fill="#545554" d="M 38.5,55.5 C 37.8333,54.1667 37.8333,54.1667 38.5,55.5 Z"/></g>
<g><path style="opacity:0.988" fill="#e8c762" d="M 50.5,42.5 C 51.2513,45.246 52.2513,47.9127 53.5,50.5C 54.0256,52.2303 55.0256,53.5637 56.5,54.5C 56.3284,55.4916 56.6618,56.1583 57.5,56.5C 58.1667,56.5 58.5,56.8333 58.5,57.5C 58.5,57.8333 58.5,58.1667 58.5,58.5C 56.965,57.6457 55.6316,57.6457 54.5,58.5C 53.8826,58.3893 53.3826,58.056 53,57.5C 52.6667,60.5 52.3333,63.5 52,66.5C 51.8195,63.3054 51.3195,60.3054 50.5,57.5C 49.9759,55.6943 49.3092,54.0276 48.5,52.5C 49.1667,49.1667 49.8333,45.8333 50.5,42.5 Z"/></g>
<g><path style="opacity:1" fill="#cea84d" d="M 95.5,42.5 C 95.8333,42.5 96.1667,42.5 96.5,42.5C 96.4142,43.4959 96.7476,44.3292 97.5,45C 99.8098,45.4966 102.143,45.6633 104.5,45.5C 102.639,46.507 99.9725,46.8404 96.5,46.5C 96.9801,51.8221 97.3135,57.1554 97.5,62.5C 97.6621,64.5273 97.4955,66.5273 97,68.5C 96.7679,67.2625 96.2679,66.2625 95.5,65.5C 94.8333,64.5 94.1667,63.5 93.5,62.5C 94.9256,58.563 93.5922,55.8964 89.5,54.5C 89.8333,53.8333 90.1667,53.1667 90.5,52.5C 91.3382,52.1583 91.6716,51.4916 91.5,50.5C 91.5,50.1667 91.5,49.8333 91.5,49.5C 92.5,48.8333 93.5,48.1667 94.5,47.5C 95.038,45.8828 95.3713,44.2161 95.5,42.5 Z"/></g>
<g><path style="opacity:1" fill="#cfa73d" d="M 63.5,50.5 C 63.8751,52.6976 64.5418,54.6976 65.5,56.5C 63.8742,59.1209 64.5409,60.9543 67.5,62C 65.8659,62.4935 64.1992,62.6602 62.5,62.5C 60.9145,61.467 59.5812,60.1336 58.5,58.5C 59.1667,58.5 59.5,58.1667 59.5,57.5C 60.2192,55.6827 61.2192,55.0161 62.5,55.5C 60.8726,53.2346 59.5392,50.9013 58.5,48.5C 58.1485,45.9272 58.6485,43.5938 60,41.5C 60.6864,44.7971 61.8531,47.7971 63.5,50.5 Z"/></g>
<g><path style="opacity:1" fill="#e2ba47" d="M 58.5,58.5 C 59.5812,60.1336 60.9145,61.467 62.5,62.5C 62.4326,63.9587 62.7659,65.2921 63.5,66.5C 63.1667,67.5 62.5,68.1667 61.5,68.5C 60.205,67.5116 58.8717,66.5116 57.5,65.5C 56.6618,65.1583 56.3284,64.4916 56.5,63.5C 56.5,62.8333 56.1667,62.5 55.5,62.5C 55.5,62.1667 55.5,61.8333 55.5,61.5C 55.4431,60.391 55.1098,59.391 54.5,58.5C 55.6316,57.6457 56.965,57.6457 58.5,58.5 Z"/></g>
<g><path style="opacity:1" fill="#bb933f" d="M 89.5,54.5 C 93.5922,55.8964 94.9256,58.563 93.5,62.5C 93.5,64.5 93.5,66.5 93.5,68.5C 93.5,69.1667 93.1667,69.5 92.5,69.5C 92.5912,67.3023 91.9245,66.9689 90.5,68.5C 88.9397,66.8706 89.273,65.704 91.5,65C 90.418,62.3129 88.7514,60.1462 86.5,58.5C 86.5,58.1667 86.5,57.8333 86.5,57.5C 87.1667,57.1667 87.8333,56.8333 88.5,56.5C 89.3382,56.1583 89.6716,55.4916 89.5,54.5 Z"/></g>
<g><path style="opacity:0.008" fill="#000000" d="M 40.5,61.5 C 39.8333,62.1667 39.8333,62.1667 40.5,61.5 Z"/></g>
<g><path style="opacity:0.004" fill="#000000" d="M 118.5,61.5 C 119.833,62.1667 119.833,62.1667 118.5,61.5 Z"/></g>
<g><path style="opacity:0.996" fill="#a97f31" d="M 86.5,58.5 C 88.7514,60.1462 90.418,62.3129 91.5,65C 89.273,65.704 88.9397,66.8706 90.5,68.5C 90.5,68.8333 90.5,69.1667 90.5,69.5C 89.9851,71.7512 88.9851,73.7512 87.5,75.5C 86.5386,73.7354 86.2053,71.7354 86.5,69.5C 86.7845,67.5853 86.4511,65.9187 85.5,64.5C 84.5,64.5 83.5,64.5 82.5,64.5C 81.6618,64.1583 81.3284,63.4916 81.5,62.5C 81.5,62.1667 81.5,61.8333 81.5,61.5C 83.4113,60.925 85.078,59.925 86.5,58.5 Z"/></g>
<g><path style="opacity:0.004" fill="#000000" d="M 118.5,64.5 C 119.833,65.1667 119.833,65.1667 118.5,64.5 Z"/></g>
<g><path style="opacity:0.008" fill="#000000" d="M 117.5,65.5 C 117.833,65.5 118.167,65.5 118.5,65.5C 118.315,66.1701 117.981,66.1701 117.5,65.5 Z"/></g>
<g><path style="opacity:1" fill="#c59b34" d="M 71.5,63.5 C 71.8333,63.5 72.1667,63.5 72.5,63.5C 74.6943,64.7665 77.0276,64.7665 79.5,63.5C 80.2975,63.9569 80.6309,64.6236 80.5,65.5C 79.5,66.1667 78.5,66.8333 77.5,67.5C 76.5233,70.2869 76.19,73.2869 76.5,76.5C 75.7321,77.2625 75.2321,78.2625 75,79.5C 73.9443,75.0608 72.111,71.0608 69.5,67.5C 69.5,67.1667 69.5,66.8333 69.5,66.5C 68.3264,64.6322 68.9931,63.6322 71.5,63.5 Z"/></g>
<g><path style="opacity:0.882" fill="#a4a377" d="M 118.5,62.5 C 118.5,63.1667 118.5,63.8333 118.5,64.5C 117.833,64.5 117.5,64.8333 117.5,65.5C 116.833,65.5 116.5,65.8333 116.5,66.5C 115.167,66.8333 115.167,67.1667 116.5,67.5C 116.068,68.7095 115.401,69.7095 114.5,70.5C 114.167,69.1667 113.833,69.1667 113.5,70.5C 112.833,70.5 112.5,70.8333 112.5,71.5C 111.833,71.8333 111.167,72.1667 110.5,72.5C 110.859,70.629 111.859,69.129 113.5,68C 112.167,66.1598 112.334,65.6598 114,66.5C 115.758,65.5305 116.258,64.3639 115.5,63C 116.448,62.5172 117.448,62.3505 118.5,62.5 Z"/></g>
<g><path style="opacity:0.012" fill="#000000" d="M 116.5,66.5 C 116.833,66.5 117.167,66.5 117.5,66.5C 117.315,67.1701 116.981,67.1701 116.5,66.5 Z"/></g>
<g><path style="opacity:0.847" fill="#eae0a1" d="M 50.5,57.5 C 51.3195,60.3054 51.8195,63.3054 52,66.5C 52.3333,63.5 52.6667,60.5 53,57.5C 53.3826,58.056 53.8826,58.3893 54.5,58.5C 55.1098,59.391 55.4431,60.391 55.5,61.5C 54.1667,61.8333 54.1667,62.1667 55.5,62.5C 56.1667,62.5 56.5,62.8333 56.5,63.5C 55.1667,65.1667 55.1667,66.8333 56.5,68.5C 55.0265,70.9606 55.1932,73.294 57,75.5C 57.2784,74.5842 57.7784,73.9175 58.5,73.5C 58.2296,78.0275 57.5629,82.3609 56.5,86.5C 55.1667,86.5 53.8333,86.5 52.5,86.5C 52.7845,84.5853 52.4511,82.9187 51.5,81.5C 51.5,80.8333 51.5,80.1667 51.5,79.5C 52.8333,78.8333 52.8333,78.1667 51.5,77.5C 51.1667,70.8333 50.8333,64.1667 50.5,57.5 Z"/></g>
<g><path style="opacity:0.655" fill="#c6c296" d="M 85.5,64.5 C 86.4511,65.9187 86.7845,67.5853 86.5,69.5C 85.3299,71.6502 84.3299,73.9836 83.5,76.5C 83.7093,77.086 84.0426,77.586 84.5,78C 82.6248,80.9431 81.1248,84.1098 80,87.5C 79.3457,88.6956 78.8457,88.6956 78.5,87.5C 80.9207,80.2104 83.254,72.5437 85.5,64.5 Z"/></g>
<g><path style="opacity:0.996" fill="#dad4a6" d="M 38.5,55.5 C 39.397,56.5981 40.2303,56.5981 41,55.5C 42.0712,58.1125 42.9045,58.1125 43.5,55.5C 44.1667,55.8333 44.8333,56.1667 45.5,56.5C 45.8333,56.5 46.1667,56.5 46.5,56.5C 46.8897,59.4658 46.223,62.1324 44.5,64.5C 45.0933,66.3817 45.7599,68.2151 46.5,70C 45.8333,70.3333 45.1667,70.6667 44.5,71C 45.8228,71.8159 46.4894,72.9826 46.5,74.5C 44.4327,75.5932 43.766,75.0932 44.5,73C 43.6721,72.0853 42.6721,71.4186 41.5,71C 42.1667,69 42.8333,67 43.5,65C 42.5,64.6667 41.5,64.3333 40.5,64C 41.7736,63.0228 41.7736,62.1894 40.5,61.5C 39.3381,60.3221 38.3381,59.1554 37.5,58C 38.2524,57.3292 38.5858,56.4959 38.5,55.5 Z"/></g>
<g><path style="opacity:0.008" fill="#000000" d="M 113.5,70.5 C 113.833,70.5 114.167,70.5 114.5,70.5C 114.315,71.1701 113.981,71.1701 113.5,70.5 Z"/></g>
<g><path style="opacity:0.996" fill="#f6d04f" d="M 56.5,67.5 C 59.179,67.5246 60.5123,68.858 60.5,71.5C 59.5,71.8333 58.8333,72.5 58.5,73.5C 57.7784,73.9175 57.2784,74.5842 57,75.5C 55.1932,73.294 55.0265,70.9606 56.5,68.5C 56.5,68.1667 56.5,67.8333 56.5,67.5 Z"/></g>
<g><path style="opacity:0.016" fill="#000000" d="M 112.5,71.5 C 112.833,71.5 113.167,71.5 113.5,71.5C 113.315,72.1701 112.981,72.1701 112.5,71.5 Z"/></g>
<g><path style="opacity:1" fill="#f4eba0" d="M 48.5,52.5 C 48.2329,60.2223 48.5663,67.889 49.5,75.5C 49.5654,75.9382 49.3988,76.2716 49,76.5C 48.5831,75.244 47.7498,74.5774 46.5,74.5C 46.4894,72.9826 45.8228,71.8159 44.5,71C 45.1667,70.6667 45.8333,70.3333 46.5,70C 45.7599,68.2151 45.0933,66.3817 44.5,64.5C 46.223,62.1324 46.8897,59.4658 46.5,56.5C 46.5,56.1667 46.5,55.8333 46.5,55.5C 47.1667,54.5 47.8333,53.5 48.5,52.5 Z"/></g>
<g><path style="opacity:0.745" fill="#e7e5b0" d="M 36.5,74.5 C 36.8333,75.1667 37.1667,75.8333 37.5,76.5C 37.5,76.8333 37.5,77.1667 37.5,77.5C 37.1667,77.5 36.8333,77.5 36.5,77.5C 35.8333,76.8333 35.1667,76.1667 34.5,75.5C 33.5423,74.0384 32.3756,72.7051 31,71.5C 30.3333,70.8333 30.3333,70.1667 31,69.5C 32.7038,71.3734 34.5372,73.0401 36.5,74.5 Z"/></g>
<g><path style="opacity:0.004" fill="#000000" d="M 37.5,76.5 C 37.1667,75.8333 36.8333,75.1667 36.5,74.5C 36.81,73.2617 37.31,73.2617 38,74.5C 38.6917,75.4368 38.525,76.1034 37.5,76.5 Z"/></g>
<g><path style="opacity:1" fill="#cfa636" d="M 69.5,67.5 C 72.111,71.0608 73.9443,75.0608 75,79.5C 75.2321,78.2625 75.7321,77.2625 76.5,76.5C 76.5,80.1667 76.5,83.8333 76.5,87.5C 74.7302,83.3107 72.3969,79.3107 69.5,75.5C 69.5,72.8333 69.5,70.1667 69.5,67.5 Z"/></g>
<g><path style="opacity:1" fill="#b99e63" d="M 97.5,62.5 C 98.7089,66.6181 99.3755,70.9515 99.5,75.5C 98.8333,77.1667 98.1667,78.8333 97.5,80.5C 97.6621,78.4727 97.4955,76.4727 97,74.5C 96.7679,75.7375 96.2679,76.7375 95.5,77.5C 94.9941,75.8946 94.3274,75.5613 93.5,76.5C 92.6618,76.8417 92.3284,77.5084 92.5,78.5C 91.6618,78.8417 91.3284,79.5084 91.5,80.5C 90.7924,82.3779 89.6257,84.0445 88,85.5C 88.3112,84.0654 88.1445,82.7321 87.5,81.5C 88.8905,81.8914 89.8905,81.0581 90.5,79C 89.3224,78.0331 87.989,77.5331 86.5,77.5C 86.8627,76.8165 87.1961,76.1499 87.5,75.5C 88.9851,73.7512 89.9851,71.7512 90.5,69.5C 91.5477,71.9327 92.2144,71.9327 92.5,69.5C 93.1667,69.5 93.5,69.1667 93.5,68.5C 95.0481,68.1788 95.7148,67.1788 95.5,65.5C 96.2679,66.2625 96.7679,67.2625 97,68.5C 97.4955,66.5273 97.6621,64.5273 97.5,62.5 Z M 97.5,80.5 C 96.2905,80.0679 95.2905,79.4013 94.5,78.5C 95.1667,78.5 95.5,78.1667 95.5,77.5C 96.2679,76.7375 96.7679,75.7375 97,74.5C 97.4955,76.4727 97.6621,78.4727 97.5,80.5 Z M 93.5,76.5 C 93.8333,77.1667 94.1667,77.8333 94.5,78.5C 93.8333,78.5 93.1667,78.5 92.5,78.5C 92.3284,77.5084 92.6618,76.8417 93.5,76.5 Z"/></g>
<g><path style="opacity:0.008" fill="#000000" d="M 109.5,75.5 C 110.833,76.1667 110.833,76.1667 109.5,75.5 Z"/></g>
<g><path style="opacity:0.224" fill="#9d9c76" d="M 18.5,78.5 C 18.5,78.8333 18.5,79.1667 18.5,79.5C 17.8333,79.5 17.1667,79.5 16.5,79.5C 16.1667,78.1667 15.8333,78.1667 15.5,79.5C 13.5154,79.1414 12.8487,78.308 13.5,77C 10.9918,72.5555 11.4918,72.3888 15,76.5C 16.8402,75.1669 17.3402,75.3335 16.5,77C 17.0442,77.7172 17.7109,78.2172 18.5,78.5 Z"/></g>
<g><path style="opacity:0.004" fill="#1f1f18" d="M 34.5,75.5 C 35.1667,76.1667 35.8333,76.8333 36.5,77.5C 36.44,78.0431 36.1067,78.3764 35.5,78.5C 34.7132,77.7579 34.0465,76.9246 33.5,76C 33.7284,75.6012 34.0618,75.4346 34.5,75.5 Z"/></g>
<g><path style="opacity:0.012" fill="#000000" d="M 108.5,76.5 C 108.833,76.5 109.167,76.5 109.5,76.5C 109.315,77.1701 108.981,77.1701 108.5,76.5 Z"/></g>
<g><path style="opacity:0.004" fill="#000000" d="M 18.5,77.5 C 19.8333,78.1667 19.8333,78.1667 18.5,77.5 Z"/></g>
<g><path style="opacity:0.622" fill="#c8c091" d="M 57.5,65.5 C 58.8717,66.5116 60.205,67.5116 61.5,68.5C 62.9675,76.8574 64.6342,84.8574 66.5,92.5C 66.3333,92.8333 66.1667,93.1667 66,93.5C 63.5031,92.1123 62.6698,90.279 63.5,88C 61.8386,82.2794 60.8386,76.7794 60.5,71.5C 60.5123,68.858 59.179,67.5246 56.5,67.5C 56.8333,66.8333 57.1667,66.1667 57.5,65.5 Z"/></g>
<g><path style="opacity:0.012" fill="#000000" d="M 15.5,79.5 C 15.8333,79.5 16.1667,79.5 16.5,79.5C 16.3147,80.1701 15.9813,80.1701 15.5,79.5 Z"/></g>
<g><path style="opacity:1" fill="#dab23d" d="M 69.5,75.5 C 72.3969,79.3107 74.7302,83.3107 76.5,87.5C 76.5,89.8333 76.5,92.1667 76.5,94.5C 72.6155,91.3967 70.2822,87.3967 69.5,82.5C 69.5,80.1667 69.5,77.8333 69.5,75.5 Z"/></g>
<g><path style="opacity:0.631" fill="#bcb380" d="M 110.5,72.5 C 110.443,73.609 110.11,74.609 109.5,75.5C 108.833,75.5 108.5,75.8333 108.5,76.5C 107.167,76.8333 107.167,77.1667 108.5,77.5C 108.068,78.7095 107.401,79.7095 106.5,80.5C 106.167,79.1667 105.833,79.1667 105.5,80.5C 104.833,80.5 104.5,80.8333 104.5,81.5C 103.833,81.5 103.5,81.8333 103.5,82.5C 102.167,82.8333 102.167,83.1667 103.5,83.5C 103.672,84.4916 103.338,85.1583 102.5,85.5C 102.167,84.1667 101.833,84.1667 101.5,85.5C 100.85,87.4939 100.517,89.4939 100.5,91.5C 99.5,91.5 98.5,91.5 97.5,91.5C 97.5,91.1667 97.5,90.8333 97.5,90.5C 99.4417,85.9443 100.108,80.9443 99.5,75.5C 100.314,77.631 100.814,79.9644 101,82.5C 103.919,80.6907 105.253,78.3574 105,75.5C 105.333,75.8333 105.667,76.1667 106,76.5C 107.371,74.9586 108.871,73.6253 110.5,72.5 Z"/></g>
<g><path style="opacity:0.008" fill="#000000" d="M 105.5,80.5 C 105.833,80.5 106.167,80.5 106.5,80.5C 106.315,81.1701 105.981,81.1701 105.5,80.5 Z"/></g>
<g><path style="opacity:0.749" fill="#dedbb5" d="M 46.5,74.5 C 47.7498,74.5774 48.5831,75.244 49,76.5C 49.3988,76.2716 49.5654,75.9382 49.5,75.5C 50.1667,76.1667 50.8333,76.8333 51.5,77.5C 51.5,78.1667 51.5,78.8333 51.5,79.5C 51.5,80.1667 51.5,80.8333 51.5,81.5C 52.4511,82.9187 52.7845,84.5853 52.5,86.5C 53.8333,86.5 55.1667,86.5 56.5,86.5C 56.8333,87.1667 57.1667,87.8333 57.5,88.5C 56.5041,88.5858 55.6708,88.2524 55,87.5C 54.6667,88.1667 54.3333,88.8333 54,89.5C 51.724,88.2381 49.8907,86.5714 48.5,84.5C 48.1667,83.8333 47.8333,83.1667 47.5,82.5C 46.612,79.9455 46.2786,77.2788 46.5,74.5 Z M 51.5,81.5 C 51.2074,85.2213 50.5407,85.0546 49.5,81C 49.6667,80.5 49.8333,80 50,79.5C 50.2784,80.4158 50.7784,81.0825 51.5,81.5 Z"/></g>
<g><path style="opacity:1" fill="#a67925" d="M 99.5,75.5 C 100.108,80.9443 99.4417,85.9443 97.5,90.5C 98.5109,88.5976 98.6776,86.5976 98,84.5C 97.2828,85.0442 96.7828,85.7109 96.5,86.5C 95.7784,86.9175 95.2784,87.5842 95,88.5C 94.4209,87.0715 94.5876,85.7382 95.5,84.5C 95.5,83.8333 95.1667,83.5 94.5,83.5C 93.8333,82.1667 92.8333,81.1667 91.5,80.5C 91.3284,79.5084 91.6618,78.8417 92.5,78.5C 93.1667,78.5 93.8333,78.5 94.5,78.5C 95.2905,79.4013 96.2905,80.0679 97.5,80.5C 98.1667,78.8333 98.8333,77.1667 99.5,75.5 Z"/></g>
<g><path style="opacity:0.016" fill="#000000" d="M 104.5,81.5 C 104.833,81.5 105.167,81.5 105.5,81.5C 105.315,82.1701 104.981,82.1701 104.5,81.5 Z"/></g>
<g><path style="opacity:0.212" fill="#b3b17f" d="M 18.5,79.5 C 20.0174,79.5106 21.1841,80.1772 22,81.5C 22.3333,81.1667 22.6667,80.8333 23,80.5C 25.3333,82.8333 27.6667,85.1667 30,87.5C 31.8402,86.1669 32.3402,86.3335 31.5,88C 32.3333,88.8333 33.1667,89.6667 34,90.5C 35.8402,89.1669 36.3402,89.3335 35.5,91C 36.3333,91.8333 37.1667,92.6667 38,93.5C 39.8402,92.1669 40.3402,92.3335 39.5,94C 40.0442,94.7172 40.7109,95.2172 41.5,95.5C 41.5,95.8333 41.5,96.1667 41.5,96.5C 40.8333,96.5 40.1667,96.5 39.5,96.5C 39.1667,95.1667 38.8333,95.1667 38.5,96.5C 37.8333,95.8333 37.1667,95.1667 36.5,94.5C 35.1169,93.5573 33.7836,92.5573 32.5,91.5C 31.6993,89.4916 30.366,88.9916 28.5,90C 29.2583,88.6361 28.7583,87.4695 27,86.5C 25.1598,87.8331 24.6598,87.6665 25.5,86C 24.6667,85.1667 23.8333,84.3333 23,83.5C 21.1598,84.8331 20.6598,84.6665 21.5,83C 20.2899,81.9609 19.2899,80.7942 18.5,79.5 Z"/></g>
<g><path style="opacity:0.005" fill="#000000" d="M 47.5,82.5 C 47.8333,83.1667 48.1667,83.8333 48.5,84.5C 48.5,85.1667 48.1667,85.5 47.5,85.5C 46.375,84.3478 46.375,83.3478 47.5,82.5 Z"/></g>
<g><path style="opacity:0.012" fill="#000000" d="M 103.5,82.5 C 103.833,82.5 104.167,82.5 104.5,82.5C 104.315,83.1701 103.981,83.1701 103.5,82.5 Z"/></g>
<g><path style="opacity:0.016" fill="#000000" d="M 124.5,82.5 C 125.833,83.1667 125.833,83.1667 124.5,82.5 Z"/></g>
<g><path style="opacity:0.012" fill="#000000" d="M 123.5,83.5 C 123.833,83.5 124.167,83.5 124.5,83.5C 124.315,84.1701 123.981,84.1701 123.5,83.5 Z"/></g>
<g><path style="opacity:0.729" fill="#a9a77a" d="M 124.5,82.5 C 123.833,82.5 123.5,82.8333 123.5,83.5C 122.167,83.8333 122.167,84.1667 123.5,84.5C 123.158,85.3382 122.492,85.6716 121.5,85.5C 121.167,84.1667 120.833,84.1667 120.5,85.5C 118.77,86.0256 117.436,87.0256 116.5,88.5C 115.833,88.5 115.5,88.8333 115.5,89.5C 114.508,89.3284 113.842,89.6618 113.5,90.5C 112.833,90.5 112.5,90.8333 112.5,91.5C 111.167,91.8333 111.167,92.1667 112.5,92.5C 111.71,93.4013 110.71,94.0679 109.5,94.5C 109.167,93.1667 108.833,93.1667 108.5,94.5C 107.833,94.5 107.5,94.8333 107.5,95.5C 106.167,95.8333 106.167,96.1667 107.5,96.5C 107.158,97.3382 106.492,97.6716 105.5,97.5C 105.167,96.1667 104.833,96.1667 104.5,97.5C 103.167,97.8333 103.167,98.1667 104.5,98.5C 103.71,99.4013 102.71,100.068 101.5,100.5C 101.167,99.1667 100.833,99.1667 100.5,100.5C 99.1667,100.833 99.1667,101.167 100.5,101.5C 99.7095,102.401 98.7095,103.068 97.5,103.5C 97.1667,102.167 96.8333,102.167 96.5,103.5C 95.8333,103.5 95.1667,103.5 94.5,103.5C 94.9528,102.542 95.6195,101.708 96.5,101C 96.1667,100.667 95.8333,100.333 95.5,100C 96.7604,98.887 97.927,98.7203 99,99.5C 100.204,98.5294 100.704,97.5294 100.5,96.5C 102.123,97.4756 103.457,96.9756 104.5,95C 103.66,93.3335 104.16,93.1669 106,94.5C 107.758,93.5305 108.258,92.3639 107.5,91C 109.259,90.0196 110.926,89.353 112.5,89C 111.66,87.3335 112.16,87.1669 114,88.5C 117.653,85.2567 121.153,82.59 124.5,80.5C 125.463,80.9698 125.463,81.6365 124.5,82.5 Z"/></g>
<g><path style="opacity:0.005" fill="#000000" d="M 47.5,85.5 C 48.625,86.6522 48.625,87.6522 47.5,88.5C 47.1667,87.8333 46.8333,87.1667 46.5,86.5C 46.5,85.8333 46.8333,85.5 47.5,85.5 Z"/></g>
<g><path style="opacity:0.008" fill="#000000" d="M 101.5,85.5 C 101.833,85.5 102.167,85.5 102.5,85.5C 102.315,86.1701 101.981,86.1701 101.5,85.5 Z"/></g>
<g><path style="opacity:0.008" fill="#000000" d="M 120.5,85.5 C 120.833,85.5 121.167,85.5 121.5,85.5C 121.315,86.1701 120.981,86.1701 120.5,85.5 Z"/></g>
<g><path style="opacity:0.463" fill="#d7c898" d="M 77.5,67.5 C 76.9349,75.8306 77.6015,83.9973 79.5,92C 79.101,93.7275 78.4343,95.2275 77.5,96.5C 77.6716,95.5084 77.3382,94.8417 76.5,94.5C 76.5,92.1667 76.5,89.8333 76.5,87.5C 76.5,83.8333 76.5,80.1667 76.5,76.5C 76.19,73.2869 76.5233,70.2869 77.5,67.5 Z"/></g>
<g><path style="opacity:0.012" fill="#000000" d="M 116.5,88.5 C 117.833,89.1667 117.833,89.1667 116.5,88.5 Z"/></g>
<g><path style="opacity:0.765" fill="#94926c" d="M 144.5,85.5 C 144.5,86.1667 144.5,86.8333 144.5,87.5C 143.167,87.8333 143.167,88.1667 144.5,88.5C 144.5,88.8333 144.5,89.1667 144.5,89.5C 142.5,90.1667 140.5,90.8333 138.5,91.5C 138.167,90.1667 137.833,90.1667 137.5,91.5C 135.348,90.9232 135.015,89.7565 136.5,88C 139.141,86.1293 141.807,85.296 144.5,85.5 Z"/></g>
<g><path style="opacity:0.006" fill="#1c1c1c" d="M 115.5,89.5 C 115.833,89.5 116.167,89.5 116.5,89.5C 115.71,90.4013 114.71,91.0679 113.5,91.5C 113.5,91.1667 113.5,90.8333 113.5,90.5C 113.842,89.6618 114.508,89.3284 115.5,89.5 Z"/></g>
<g><path style="opacity:0.012" fill="#000000" d="M 133.5,90.5 C 134.833,91.1667 134.833,91.1667 133.5,90.5 Z"/></g>
<g><path style="opacity:0.012" fill="#000000" d="M 32.5,91.5 C 31.8333,92.1667 31.8333,92.1667 32.5,91.5 Z"/></g>
<g><path style="opacity:0.008" fill="#000000" d="M 96.5,91.5 C 96.8333,91.5 97.1667,91.5 97.5,91.5C 97.3147,92.1701 96.9813,92.1701 96.5,91.5 Z"/></g>
<g><path style="opacity:0.016" fill="#000000" d="M 100.5,91.5 C 101.833,92.1667 101.833,92.1667 100.5,91.5 Z"/></g>
<g><path style="opacity:0.016" fill="#3f403f" d="M 112.5,91.5 C 112.833,91.5 113.167,91.5 113.5,91.5C 113.315,92.1701 112.981,92.1701 112.5,91.5 Z"/></g>
<g><path style="opacity:0.004" fill="#000000" d="M 137.5,91.5 C 137.833,91.5 138.167,91.5 138.5,91.5C 138.315,92.1701 137.981,92.1701 137.5,91.5 Z"/></g>
<g><path style="opacity:0.008" fill="#000000" d="M 95.5,92.5 C 95.8333,92.5 96.1667,92.5 96.5,92.5C 96.3147,93.1701 95.9813,93.1701 95.5,92.5 Z"/></g>
<g><path style="opacity:1" fill="#e8c046" d="M 69.5,82.5 C 70.2822,87.3967 72.6155,91.3967 76.5,94.5C 77.3382,94.8417 77.6716,95.5084 77.5,96.5C 77.5,96.8333 77.5,97.1667 77.5,97.5C 76.8333,97.5 76.5,97.8333 76.5,98.5C 75.8485,99.0906 75.1818,99.7573 74.5,100.5C 73.914,100.291 73.414,99.9574 73,99.5C 71.4089,95.8865 70.2422,92.2198 69.5,88.5C 69.5,86.5 69.5,84.5 69.5,82.5 Z"/></g>
<g><path style="opacity:0.008" fill="#000000" d="M 36.5,94.5 C 35.8333,95.1667 35.8333,95.1667 36.5,94.5 Z"/></g>
<g><path style="opacity:0.008" fill="#000000" d="M 41.5,94.5 C 42.8333,95.1667 42.8333,95.1667 41.5,94.5 Z"/></g>
<g><path style="opacity:0.012" fill="#000000" d="M 108.5,94.5 C 108.833,94.5 109.167,94.5 109.5,94.5C 109.315,95.1701 108.981,95.1701 108.5,94.5 Z"/></g>
<g><path style="opacity:0.004" fill="#000000" d="M 122.5,95.5 C 121.833,94.1667 121.833,94.1667 122.5,95.5 Z"/></g>
<g><path style="opacity:0.004" fill="#000000" d="M 130.5,94.5 C 131.833,95.1667 131.833,95.1667 130.5,94.5 Z"/></g>
<g><path style="opacity:0.008" fill="#000000" d="M 107.5,95.5 C 107.833,95.5 108.167,95.5 108.5,95.5C 108.315,96.1701 107.981,96.1701 107.5,95.5 Z"/></g>
<g><path style="opacity:0.004" fill="#000000" d="M 23.5,96.5 C 24.8333,97.1667 24.8333,97.1667 23.5,96.5 Z"/></g>
<g><path style="opacity:0.012" fill="#000000" d="M 38.5,96.5 C 38.8333,96.5 39.1667,96.5 39.5,96.5C 39.3147,97.1701 38.9813,97.1701 38.5,96.5 Z"/></g>
<g><path style="opacity:0.008" fill="#7f807f" d="M 92.5,96.5 C 92.8333,96.5 93.1667,96.5 93.5,96.5C 93.3147,97.1701 92.9813,97.1701 92.5,96.5 Z"/></g>
<g><path style="opacity:0.004" fill="#000000" d="M 25.5,97.5 C 26.8333,98.1667 26.8333,98.1667 25.5,97.5 Z"/></g>
<g><path style="opacity:0.478" fill="#aba87f" d="M 37.5,77.5 C 38.7942,78.2899 39.9609,79.2899 41,80.5C 41.3333,80.1667 41.6667,79.8333 42,79.5C 43.113,80.7604 43.2797,81.927 42.5,83C 43.7051,84.3756 45.0384,85.5423 46.5,86.5C 46.8333,87.1667 47.1667,87.8333 47.5,88.5C 49.6592,91.5208 51.9926,93.6874 54.5,95C 54.1667,95.3333 53.8333,95.6667 53.5,96C 54.8281,98.2903 56.4947,99.1236 58.5,98.5C 58.5,99.1667 58.5,99.8333 58.5,100.5C 58.5,100.833 58.5,101.167 58.5,101.5C 57.8333,101.5 57.5,101.833 57.5,102.5C 56.0502,103.658 55.0502,103.158 54.5,101C 54.8333,100.667 55.1667,100.333 55.5,100C 53.4847,97.583 51.4847,95.9163 49.5,95C 49.8333,94.6667 50.1667,94.3333 50.5,94C 49.3333,92.8333 48.1667,91.6667 47,90.5C 46.6667,90.8333 46.3333,91.1667 46,91.5C 44.887,90.2396 44.7203,89.073 45.5,88C 44.3333,86.8333 43.1667,85.6667 42,84.5C 41.6667,84.8333 41.3333,85.1667 41,85.5C 39.4653,82.9369 38.2986,80.2702 37.5,77.5 Z"/></g>
<g><path style="opacity:0.016" fill="#000000" d="M 91.5,97.5 C 91.8333,97.5 92.1667,97.5 92.5,97.5C 92.3147,98.1701 91.9813,98.1701 91.5,97.5 Z"/></g>
<g><path style="opacity:0.012" fill="#000000" d="M 104.5,97.5 C 104.833,97.5 105.167,97.5 105.5,97.5C 105.315,98.1701 104.981,98.1701 104.5,97.5 Z"/></g>
<g><path style="opacity:0.71" fill="#848163" d="M 57.5,88.5 C 58.7736,89.1894 58.7736,90.0228 57.5,91C 61.06,93.5211 63.7266,97.3545 65.5,102.5C 64.019,103.944 64.3523,104.611 66.5,104.5C 67.1667,104.5 67.5,104.833 67.5,105.5C 66.8333,105.5 66.1667,105.5 65.5,105.5C 64.8333,105.5 64.5,105.833 64.5,106.5C 64.1667,106.5 63.8333,106.5 63.5,106.5C 63.5,105.167 62.8333,104.5 61.5,104.5C 61.5,103.833 61.1667,103.5 60.5,103.5C 60.5,102.833 60.1667,102.5 59.5,102.5C 59.5,101.833 59.1667,101.5 58.5,101.5C 58.5,101.167 58.5,100.833 58.5,100.5C 60.9327,99.4523 60.9327,98.7856 58.5,98.5C 59.6576,97.0502 59.1576,96.0502 57,95.5C 54.898,92.8744 55.0646,90.5411 57.5,88.5 Z"/></g>
<g><path style="opacity:0.8" fill="#aba77d" d="M 81.5,102.5 C 81.5,102.833 81.5,103.167 81.5,103.5C 80.4427,104.206 80.7761,104.539 82.5,104.5C 82.5,104.833 82.5,105.167 82.5,105.5C 81.8333,105.5 81.5,105.833 81.5,106.5C 80.8333,106.5 80.5,106.833 80.5,107.5C 80.5,108.167 80.1667,108.5 79.5,108.5C 79.5654,108.062 79.3988,107.728 79,107.5C 78.7216,108.416 78.2216,109.082 77.5,109.5C 76.5773,105.936 76.244,102.269 76.5,98.5C 76.5,97.8333 76.8333,97.5 77.5,97.5C 76.8017,107.694 78.135,108.028 81.5,98.5C 81.2907,97.914 80.9574,97.414 80.5,97C 81.5,96 82.5,95 83.5,94C 82.1669,92.1598 82.3335,91.6598 84,92.5C 84.9734,90.6079 85.6401,88.6079 86,86.5C 86.3333,86.8333 86.6667,87.1667 87,87.5C 86.621,89.075 86.7877,90.575 87.5,92C 85.6992,92.3173 85.3659,92.984 86.5,94C 85.8333,94.3333 85.1667,94.6667 84.5,95C 84.2545,96.0601 84.2545,97.2268 84.5,98.5C 84.1543,99.6956 83.6543,99.6956 83,98.5C 82.2086,99.745 81.7086,101.078 81.5,102.5 Z"/></g>
<g><path style="opacity:0.005" fill="#000000" d="M 90.5,98.5 C 90.8333,98.5 91.1667,98.5 91.5,98.5C 91.0679,99.7095 90.4013,100.71 89.5,101.5C 89.5,101.167 89.5,100.833 89.5,100.5C 89.3284,99.5084 89.6618,98.8417 90.5,98.5 Z"/></g>
<g><path style="opacity:0.008" fill="#000000" d="M 136.5,98.5 C 137.833,99.1667 137.833,99.1667 136.5,98.5 Z"/></g>
<g><path style="opacity:0.004" fill="#000000" d="M 8.5,100.5 C 7.83333,99.1667 7.83333,99.1667 8.5,100.5 Z"/></g>
<g><path style="opacity:0.004" fill="#000000" d="M 30.5,99.5 C 31.8333,100.167 31.8333,100.167 30.5,99.5 Z"/></g>
<g><path style="opacity:1" fill="#a1782a" d="M 11.5,97.5 C 13.6382,97.703 15.3049,98.703 16.5,100.5C 17.0409,103.734 18.3742,106.567 20.5,109C 17.8605,110.118 15.0272,110.618 12,110.5C 9.30968,110.497 6.80968,110.164 4.5,109.5C 5.36288,108.06 5.36288,106.726 4.5,105.5C 4.84569,104.304 5.34569,104.304 6,105.5C 7.03859,104.756 7.53859,103.756 7.5,102.5C 8.33825,102.158 8.67158,101.492 8.5,100.5C 9.27187,99.3065 10.2719,98.3065 11.5,97.5 Z"/></g>
<g><path style="opacity:0.012" fill="#000000" d="M 100.5,100.5 C 100.833,100.5 101.167,100.5 101.5,100.5C 101.315,101.17 100.981,101.17 100.5,100.5 Z"/></g>
<g><path style="opacity:1" fill="#ecce65" d="M 136.5,98.5 C 135.167,98.8333 135.167,99.1667 136.5,99.5C 138.229,100.236 139.229,101.57 139.5,103.5C 138.167,103.833 138.167,104.167 139.5,104.5C 140.209,105.404 141.209,105.737 142.5,105.5C 142.5,106.167 142.5,106.833 142.5,107.5C 141.833,107.5 141.5,107.833 141.5,108.5C 138.171,104.829 136.505,105.163 136.5,109.5C 135.5,109.5 134.5,109.5 133.5,109.5C 133.66,107.801 133.494,106.134 133,104.5C 131.647,103.315 130.48,101.981 129.5,100.5C 127.701,99.2121 126.035,99.2121 124.5,100.5C 124.631,101.239 124.464,101.906 124,102.5C 123.583,101.244 122.75,100.577 121.5,100.5C 121.5,100.167 121.5,99.8333 121.5,99.5C 126.426,97.8826 131.259,96.8826 136,96.5C 136.464,97.0944 136.631,97.7611 136.5,98.5 Z"/></g>
<g><path style="opacity:0.012" fill="#545554" d="M 7.5,102.5 C 6.83333,101.167 6.83333,101.167 7.5,102.5 Z"/></g>
<g><path style="opacity:1" fill="#b19356" d="M 18.5,97.5 C 18.5,97.8333 18.5,98.1667 18.5,98.5C 18.838,100.854 19.338,103.187 20,105.5C 22.3858,106.763 24.2192,108.597 25.5,111C 26.448,111.483 27.448,111.649 28.5,111.5C 28.5,111.833 28.5,112.167 28.5,112.5C 19.7763,112.376 11.443,111.376 3.5,109.5C 3.83333,109.5 4.16667,109.5 4.5,109.5C 6.80968,110.164 9.30968,110.497 12,110.5C 15.0272,110.618 17.8605,110.118 20.5,109C 18.3742,106.567 17.0409,103.734 16.5,100.5C 15.3049,98.703 13.6382,97.703 11.5,97.5C 10.2983,95.6075 8.96501,93.7742 7.5,92C 7.83333,91.8333 8.16667,91.6667 8.5,91.5C 9.5,92.8333 10.5,92.8333 11.5,91.5C 11.8333,92.1667 12.1667,92.8333 12.5,93.5C 14.5894,92.1966 16.2561,92.6966 17.5,95C 14.6677,96.9076 15.001,97.741 18.5,97.5 Z"/></g>
<g><path style="opacity:1" fill="#c19631" d="M 18.5,98.5 C 18.8333,98.5 19.1667,98.5 19.5,98.5C 21.2905,99.3913 23.1239,100.391 25,101.5C 26.813,100.391 27.6463,101.058 27.5,103.5C 28.8333,103.5 30.1667,103.5 31.5,103.5C 31.6644,106.674 32.6644,109.507 34.5,112C 33.552,112.483 32.552,112.649 31.5,112.5C 31.6602,110.801 31.4935,109.134 31,107.5C 29.887,108.76 29.7203,109.927 30.5,111C 29.9056,111.464 29.2389,111.631 28.5,111.5C 27.448,111.649 26.448,111.483 25.5,111C 24.2192,108.597 22.3858,106.763 20,105.5C 19.338,103.187 18.838,100.854 18.5,98.5 Z"/></g>
<g><path style="opacity:0.005" fill="#000000" d="M 84.5,102.5 C 84.1667,103.167 83.8333,103.833 83.5,104.5C 83.1667,104.5 82.8333,104.5 82.5,104.5C 82.5,103.833 82.1667,103.5 81.5,103.5C 81.5,103.167 81.5,102.833 81.5,102.5C 82.7978,101.884 83.7978,101.884 84.5,102.5 Z"/></g>
<g><path style="opacity:0.592" fill="#d1ca91" d="M 91.5,80.5 C 92.8333,81.1667 93.8333,82.1667 94.5,83.5C 93.4427,84.206 93.7761,84.5393 95.5,84.5C 94.5876,85.7382 94.4209,87.0715 95,88.5C 95.2784,87.5842 95.7784,86.9175 96.5,86.5C 96.7828,85.7109 97.2828,85.0442 98,84.5C 98.6776,86.5976 98.5109,88.5976 97.5,90.5C 96.8333,90.5 96.5,90.8333 96.5,91.5C 95.8333,91.5 95.5,91.8333 95.5,92.5C 94.1667,92.8333 94.1667,93.1667 95.5,93.5C 95.0679,94.7095 94.4013,95.7095 93.5,96.5C 93.1667,95.1667 92.8333,95.1667 92.5,96.5C 91.8333,96.5 91.5,96.8333 91.5,97.5C 90.8333,97.5 90.5,97.8333 90.5,98.5C 89.6618,98.8417 89.3284,99.5084 89.5,100.5C 88.8333,100.5 88.5,100.833 88.5,101.5C 87.8333,101.5 87.5,101.833 87.5,102.5C 86.8333,102.5 86.5,102.833 86.5,103.5C 85.8333,103.5 85.5,103.833 85.5,104.5C 85.1667,105.167 84.8333,105.833 84.5,106.5C 83.8333,106.5 83.5,106.833 83.5,107.5C 82.8333,107.5 82.5,107.833 82.5,108.5C 81.8333,108.5 81.5,108.833 81.5,109.5C 81.1667,110.167 80.8333,110.833 80.5,111.5C 79.5,111.833 78.8333,112.5 78.5,113.5C 78.1667,113.5 77.8333,113.5 77.5,113.5C 76.1667,112.5 76.1667,111.5 77.5,110.5C 77.4346,110.938 77.6012,111.272 78,111.5C 79.0386,110.756 79.5386,109.756 79.5,108.5C 80.1667,108.5 80.5,108.167 80.5,107.5C 81.1667,107.5 81.5,107.167 81.5,106.5C 82.1667,106.5 82.5,106.167 82.5,105.5C 83.1667,105.5 83.5,105.167 83.5,104.5C 83.8333,103.833 84.1667,103.167 84.5,102.5C 86.5053,101.746 87.172,100.579 86.5,99C 87.1258,98.2496 87.6258,97.4162 88,96.5C 88.3333,96.8333 88.6667,97.1667 89,97.5C 91.6228,95.9849 92.6228,93.9849 92,91.5C 92.9138,92.6537 93.7471,92.487 94.5,91C 92.9861,89.561 92.6527,88.061 93.5,86.5C 91.9137,84.8273 91.2471,82.8273 91.5,80.5 Z"/></g>
<g><path style="opacity:0.008" fill="#7f807f" d="M 88.5,101.5 C 88.8333,101.5 89.1667,101.5 89.5,101.5C 89.3147,102.17 88.9813,102.17 88.5,101.5 Z"/></g>
<g><path style="opacity:0.361" fill="#bfba87" d="M 133.5,91.5 C 133.611,92.1174 133.944,92.6174 134.5,93C 133.252,93.8611 131.919,94.3611 130.5,94.5C 129.761,94.369 129.094,94.5357 128.5,95C 129.34,96.6665 128.84,96.8331 127,95.5C 124.602,96.8563 122.102,98.0229 119.5,99C 120.094,99.4643 120.761,99.631 121.5,99.5C 121.5,99.8333 121.5,100.167 121.5,100.5C 120.5,100.5 119.5,100.5 118.5,100.5C 118.167,99.1667 117.833,99.1667 117.5,100.5C 117.5,100.833 117.5,101.167 117.5,101.5C 116.833,101.5 116.167,101.5 115.5,101.5C 115.167,100.167 114.833,100.167 114.5,101.5C 113.329,102.345 111.995,103.011 110.5,103.5C 109.167,103.5 107.833,103.5 106.5,103.5C 105.462,101.892 106.129,100.892 108.5,100.5C 109.842,101.902 110.676,101.569 111,99.5C 112.613,100.622 113.78,100.122 114.5,98C 115.449,97.3828 116.282,97.5494 117,98.5C 117.317,96.6992 117.984,96.3659 119,97.5C 119.333,96.8333 119.667,96.1667 120,95.5C 120.977,96.7736 121.811,96.7736 122.5,95.5C 122.974,94.2704 124.308,93.2704 126.5,92.5C 127.842,93.9023 128.676,93.5689 129,91.5C 130.016,92.6341 130.683,92.3008 131,90.5C 131.671,91.2524 132.504,91.5858 133.5,91.5 Z"/></g>
<g><path style="opacity:1" fill="#f7d151" d="M 69.5,88.5 C 70.2422,92.2198 71.4089,95.8865 73,99.5C 73.414,99.9574 73.914,100.291 74.5,100.5C 75.1818,99.7573 75.8485,99.0906 76.5,98.5C 76.244,102.269 76.5773,105.936 77.5,109.5C 77.5,109.833 77.5,110.167 77.5,110.5C 76.1667,111.5 76.1667,112.5 77.5,113.5C 77.5,113.833 77.5,114.167 77.5,114.5C 76.8843,115.202 76.8843,116.202 77.5,117.5C 76.7784,117.918 76.2784,118.584 76,119.5C 74.5818,114.99 72.4151,110.99 69.5,107.5C 69.5,101.167 69.5,94.8333 69.5,88.5 Z"/></g>
<g><path style="opacity:0.012" fill="#545554" d="M 87.5,102.5 C 87.8333,102.5 88.1667,102.5 88.5,102.5C 88.3147,103.17 87.9813,103.17 87.5,102.5 Z"/></g>
<g><path style="opacity:0.012" fill="#000000" d="M 86.5,103.5 C 86.8333,103.5 87.1667,103.5 87.5,103.5C 87.3147,104.17 86.9813,104.17 86.5,103.5 Z"/></g>
<g><path style="opacity:0.012" fill="#000000" d="M 96.5,103.5 C 96.8333,103.5 97.1667,103.5 97.5,103.5C 97.3147,104.17 96.9813,104.17 96.5,103.5 Z"/></g>
<g><path style="opacity:0.008" fill="#000000" d="M 139.5,103.5 C 140.833,104.167 140.833,104.167 139.5,103.5 Z"/></g>
<g><path style="opacity:0.004" fill="#000000" d="M 45.5,104.5 C 46.8333,105.167 46.8333,105.167 45.5,104.5 Z"/></g>
<g><path style="opacity:0.006" fill="#000000" d="M 85.5,104.5 C 85.8333,104.5 86.1667,104.5 86.5,104.5C 86.5,105.167 86.5,105.833 86.5,106.5C 85.1667,106.833 85.1667,107.167 86.5,107.5C 86.5,108.167 86.1667,108.5 85.5,108.5C 84.8333,108.5 84.5,108.833 84.5,109.5C 83.8333,109.5 83.5,109.833 83.5,110.5C 82.8333,110.833 82.1667,111.167 81.5,111.5C 81.1667,111.5 80.8333,111.5 80.5,111.5C 80.8333,110.833 81.1667,110.167 81.5,109.5C 82.1667,109.5 82.5,109.167 82.5,108.5C 83.1667,108.5 83.5,108.167 83.5,107.5C 84.1667,107.5 84.5,107.167 84.5,106.5C 84.8333,105.833 85.1667,105.167 85.5,104.5 Z"/></g>
<g><path style="opacity:0.004" fill="#000000" d="M 142.5,104.5 C 143.833,105.167 143.833,105.167 142.5,104.5 Z"/></g>
<g><path style="opacity:0.004" fill="#000000" d="M 47.5,105.5 C 48.8333,106.167 48.8333,106.167 47.5,105.5 Z"/></g>
<g><path style="opacity:0.004" fill="#000000" d="M 98.5,106.5 C 97.8333,105.167 97.8333,105.167 98.5,106.5 Z"/></g>
<g><path style="opacity:1" fill="#bc912e" d="M 114.5,101.5 C 114.833,101.5 115.167,101.5 115.5,101.5C 116.167,101.5 116.833,101.5 117.5,101.5C 120.792,104.057 123.126,107.391 124.5,111.5C 116.759,113.665 112.092,110.998 110.5,103.5C 111.995,103.011 113.329,102.345 114.5,101.5 Z"/></g>
<g><path style="opacity:0.005" fill="#0f0f0f" d="M 52.5,106.5 C 52.8333,106.5 53.1667,106.5 53.5,106.5C 53.5,107.167 53.8333,107.5 54.5,107.5C 54.5,108.167 54.8333,108.5 55.5,108.5C 55.5,108.833 55.5,109.167 55.5,109.5C 55.1667,109.5 54.8333,109.5 54.5,109.5C 54.1667,109.5 53.8333,109.5 53.5,109.5C 53.5,108.833 53.1667,108.5 52.5,108.5C 52.1667,108.5 51.8333,108.5 51.5,108.5C 51.3284,107.508 51.6618,106.842 52.5,106.5 Z"/></g>
<g><path style="opacity:0.584" fill="#b3b07f" d="M 41.5,96.5 C 43.0174,96.5106 44.1841,97.1772 45,98.5C 45.3333,98.1667 45.6667,97.8333 46,97.5C 49.3157,101.146 52.9824,104.479 57,107.5C 58.016,106.366 58.6827,106.699 59,108.5C 59.2784,107.584 59.7784,106.918 60.5,106.5C 61.1667,107.5 61.8333,108.5 62.5,109.5C 62.5,110.167 62.8333,110.5 63.5,110.5C 63.5,110.833 63.5,111.167 63.5,111.5C 62.8333,111.5 62.5,111.833 62.5,112.5C 60.629,112.141 59.129,111.141 58,109.5C 57.6174,110.056 57.1174,110.389 56.5,110.5C 56.1667,110.5 55.8333,110.5 55.5,110.5C 55.5,110.167 55.5,109.833 55.5,109.5C 56.8333,109.167 56.8333,108.833 55.5,108.5C 54.8333,108.5 54.5,108.167 54.5,107.5C 53.8333,107.5 53.5,107.167 53.5,106.5C 53.1667,106.5 52.8333,106.5 52.5,106.5C 51.4755,103.909 49.8089,103.076 47.5,104C 48.2583,102.636 47.7583,101.469 46,100.5C 44.1598,101.833 43.6598,101.666 44.5,100C 43.2899,98.9609 42.2899,97.7942 41.5,96.5 Z"/></g>
<g><path style="opacity:0.005" fill="#000000" d="M 91.5,107.5 C 91.5,106.833 91.8333,106.5 92.5,106.5C 93.1667,106.833 93.8333,107.167 94.5,107.5C 94.5,107.833 94.5,108.167 94.5,108.5C 94.1667,108.5 93.8333,108.5 93.5,108.5C 93.1667,108.5 92.8333,108.5 92.5,108.5C 92.5,107.833 92.1667,107.5 91.5,107.5 Z"/></g>
<g><path style="opacity:1" fill="#b08a42" d="M 106.5,103.5 C 107.833,103.5 109.167,103.5 110.5,103.5C 112.092,110.998 116.759,113.665 124.5,111.5C 124.833,111.5 125.167,111.5 125.5,111.5C 117.246,112.486 108.912,113.819 100.5,115.5C 101.736,113.172 103.736,112.006 106.5,112C 105.167,111.667 103.833,111.333 102.5,111C 103.833,110 103.833,109 102.5,108C 99.3095,107.694 97.4762,109.194 97,112.5C 96.2411,110.937 95.0744,109.937 93.5,109.5C 93.5,109.167 93.5,108.833 93.5,108.5C 93.8333,108.5 94.1667,108.5 94.5,108.5C 95.8333,108.167 95.8333,107.833 94.5,107.5C 95.8333,107.167 97.1667,106.833 98.5,106.5C 99.2389,106.631 99.9056,106.464 100.5,106C 99.6598,104.334 100.16,104.167 102,105.5C 103.47,104.733 104.97,104.067 106.5,103.5 Z"/></g>
<g><path style="opacity:1" fill="#ddb544" d="M 117.5,101.5 C 117.5,101.167 117.5,100.833 117.5,100.5C 117.833,100.5 118.167,100.5 118.5,100.5C 119.5,100.5 120.5,100.5 121.5,100.5C 122.75,100.577 123.583,101.244 124,102.5C 124.464,101.906 124.631,101.239 124.5,100.5C 126.915,103.34 128.248,106.673 128.5,110.5C 128.5,110.833 128.5,111.167 128.5,111.5C 127.5,111.5 126.5,111.5 125.5,111.5C 125.167,111.5 124.833,111.5 124.5,111.5C 123.126,107.391 120.792,104.057 117.5,101.5 Z"/></g>
<g><path style="opacity:0.635" fill="#dad092" d="M 68.5,66.5 C 68.8333,66.5 69.1667,66.5 69.5,66.5C 69.5,66.8333 69.5,67.1667 69.5,67.5C 69.5,70.1667 69.5,72.8333 69.5,75.5C 69.5,77.8333 69.5,80.1667 69.5,82.5C 69.5,84.5 69.5,86.5 69.5,88.5C 69.5,94.8333 69.5,101.167 69.5,107.5C 68.6618,107.842 68.3284,108.508 68.5,109.5C 68.1667,109.5 67.8333,109.5 67.5,109.5C 66.6043,110.506 65.9377,110.506 65.5,109.5C 65.5,108.833 65.1667,108.5 64.5,108.5C 64.5,107.833 64.5,107.167 64.5,106.5C 64.5,105.833 64.8333,105.5 65.5,105.5C 66.6953,109.286 67.362,109.286 67.5,105.5C 67.5,104.833 67.1667,104.5 66.5,104.5C 65.9919,101.824 65.8253,99.1572 66,96.5C 66.3333,96.1667 66.6667,95.8333 67,95.5C 67.3333,97.5 67.6667,99.5 68,101.5C 68.4999,89.8381 68.6665,78.1714 68.5,66.5 Z M 65.5,105.5 C 66.1667,105.5 66.8333,105.5 67.5,105.5C 67.362,109.286 66.6953,109.286 65.5,105.5 Z"/></g>
<g><path style="opacity:0.006" fill="#121212" d="M 90.5,107.5 C 90.8333,107.5 91.1667,107.5 91.5,107.5C 92.1667,107.5 92.5,107.833 92.5,108.5C 92.5,108.833 92.5,109.167 92.5,109.5C 92.1667,109.5 91.8333,109.5 91.5,109.5C 90.8333,109.5 90.5,109.833 90.5,110.5C 90.1667,110.5 89.8333,110.5 89.5,110.5C 88.8333,110.5 88.5,110.833 88.5,111.5C 88.1667,111.5 87.8333,111.5 87.5,111.5C 87.1667,111.5 86.8333,111.5 86.5,111.5C 86.5,111.167 86.5,110.833 86.5,110.5C 87.1667,110.167 87.8333,109.833 88.5,109.5C 89.1667,109.5 89.5,109.167 89.5,108.5C 90.1667,108.5 90.5,108.167 90.5,107.5 Z"/></g>
<g><path style="opacity:0.004" fill="#000000" d="M 142.5,107.5 C 143.833,108.167 143.833,108.833 142.5,109.5C 142.5,108.833 142.5,108.167 142.5,107.5 Z"/></g>
<g><path style="opacity:0.004" fill="#000000" d="M 3.5,109.5 C 2.83333,108.167 2.83333,108.167 3.5,109.5 Z"/></g>
<g><path style="opacity:1" fill="#f2cb4a" d="M 124.5,100.5 C 126.035,99.2121 127.701,99.2121 129.5,100.5C 130.48,101.981 131.647,103.315 133,104.5C 133.494,106.134 133.66,107.801 133.5,109.5C 134.5,109.5 135.5,109.5 136.5,109.5C 136.505,105.163 138.171,104.829 141.5,108.5C 141.5,108.833 141.5,109.167 141.5,109.5C 137.366,110.485 133.032,110.818 128.5,110.5C 128.248,106.673 126.915,103.34 124.5,100.5 Z"/></g>
<g><path style="opacity:1" fill="#d7b553" d="M 23.5,97.5 C 23.8417,98.3382 24.5084,98.6716 25.5,98.5C 26.3132,99.6527 27.3132,99.6527 28.5,98.5C 29.6956,98.8457 29.6956,99.3457 28.5,100C 29.0944,100.464 29.7611,100.631 30.5,100.5C 33.6552,101.442 36.6552,102.776 39.5,104.5C 38.1667,104.5 36.8333,104.5 35.5,104.5C 35.3184,106.591 35.6518,108.591 36.5,110.5C 38.7724,111.134 40.4391,112.468 41.5,114.5C 37.1055,114.156 32.7722,113.49 28.5,112.5C 28.5,112.167 28.5,111.833 28.5,111.5C 29.2389,111.631 29.9056,111.464 30.5,111C 29.7203,109.927 29.887,108.76 31,107.5C 31.4935,109.134 31.6602,110.801 31.5,112.5C 32.552,112.649 33.552,112.483 34.5,112C 32.6644,109.507 31.6644,106.674 31.5,103.5C 30.1667,103.5 28.8333,103.5 27.5,103.5C 27.6463,101.058 26.813,100.391 25,101.5C 23.1239,100.391 21.2905,99.3913 19.5,98.5C 19.5,97.8333 19.1667,97.5 18.5,97.5C 19.172,96.7326 20.0053,96.0659 21,95.5C 21.4169,96.756 22.2502,97.4226 23.5,97.5 Z"/></g>
<g><path style="opacity:0.999" fill="#fade75" d="M 40.5,104.5 C 42.1172,105.038 43.7839,105.371 45.5,105.5C 45.8417,106.338 46.5084,106.672 47.5,106.5C 48.2905,107.401 49.2905,108.068 50.5,108.5C 50.9399,111.263 52.2732,112.263 54.5,111.5C 55.8625,113.012 56.1958,114.512 55.5,116C 56.8333,117 58.1667,118 59.5,119C 58.552,119.483 57.552,119.649 56.5,119.5C 55.3646,117.787 53.698,117.12 51.5,117.5C 47.9752,116.79 44.6418,115.79 41.5,114.5C 44.214,114.75 46.8806,114.917 49.5,115C 48.2766,112.948 47.2766,110.781 46.5,108.5C 45.8076,109.025 45.3076,109.692 45,110.5C 42.8981,108.905 41.3981,106.905 40.5,104.5 Z"/></g>
<g><path style="opacity:0.565" fill="#ede7a3" d="M 58.5,101.5 C 59.1667,101.5 59.5,101.833 59.5,102.5C 60.1667,102.5 60.5,102.833 60.5,103.5C 61.1667,103.5 61.5,103.833 61.5,104.5C 61.8333,105.5 62.5,106.167 63.5,106.5C 63.3284,107.492 63.6618,108.158 64.5,108.5C 65.1667,108.5 65.5,108.833 65.5,109.5C 65.9377,110.506 66.6043,110.506 67.5,109.5C 67.8333,110.833 68.1667,110.833 68.5,109.5C 69.9118,111.23 69.5785,112.73 67.5,114C 68.0442,114.717 68.7109,115.217 69.5,115.5C 68.3915,116.29 67.0581,116.79 65.5,117C 66.1667,117.333 66.8333,117.667 67.5,118C 65.9401,120.115 65.6068,122.281 66.5,124.5C 64.9731,124.573 63.9731,123.906 63.5,122.5C 63.9066,121.238 64.24,119.905 64.5,118.5C 63.3698,117.378 62.7031,116.044 62.5,114.5C 63.5063,114.062 63.5063,113.396 62.5,112.5C 62.5,111.833 62.8333,111.5 63.5,111.5C 63.9763,113.066 64.643,113.4 65.5,112.5C 65.1445,111.478 64.4778,110.811 63.5,110.5C 62.8333,110.5 62.5,110.167 62.5,109.5C 61.8333,108.5 61.1667,107.5 60.5,106.5C 59.5,105.167 58.5,103.833 57.5,102.5C 57.5,101.833 57.8333,101.5 58.5,101.5 Z"/></g>
<g><path style="opacity:1" fill="#f3cd4d" d="M 39.5,104.5 C 39.8333,104.5 40.1667,104.5 40.5,104.5C 41.3981,106.905 42.8981,108.905 45,110.5C 45.3076,109.692 45.8076,109.025 46.5,108.5C 47.2766,110.781 48.2766,112.948 49.5,115C 46.8806,114.917 44.214,114.75 41.5,114.5C 40.4391,112.468 38.7724,111.134 36.5,110.5C 35.6518,108.591 35.3184,106.591 35.5,104.5C 36.8333,104.5 38.1667,104.5 39.5,104.5 Z"/></g>
<g><path style="opacity:0.376" fill="#c9bfa2" d="M 141.5,109.5 C 141.833,109.5 142.167,109.5 142.5,109.5C 142.611,110.117 142.944,110.617 143.5,111C 138.511,111.499 133.511,111.666 128.5,111.5C 128.5,111.167 128.5,110.833 128.5,110.5C 133.032,110.818 137.366,110.485 141.5,109.5 Z"/></g>
<g><path style="opacity:1" fill="#b68c2c" d="M 100.5,115.5 C 97.6424,115.405 95.3091,114.238 93.5,112C 92.4019,111.23 92.4019,110.397 93.5,109.5C 95.0744,109.937 96.2411,110.937 97,112.5C 97.4762,109.194 99.3095,107.694 102.5,108C 103.833,109 103.833,110 102.5,111C 103.833,111.333 105.167,111.667 106.5,112C 103.736,112.006 101.736,113.172 100.5,115.5 Z"/></g>
<g><path style="opacity:0.271" fill="#e1da96" d="M 94.5,103.5 C 93.8333,104.5 93.1667,105.5 92.5,106.5C 91.8333,106.5 91.5,106.833 91.5,107.5C 91.1667,107.5 90.8333,107.5 90.5,107.5C 89.8333,107.5 89.5,107.833 89.5,108.5C 88.8333,108.5 88.5,108.833 88.5,109.5C 87.8333,109.833 87.1667,110.167 86.5,110.5C 85.8333,110.5 85.5,110.833 85.5,111.5C 84.8333,111.5 84.5,111.833 84.5,112.5C 81.8333,112.833 81.8333,113.167 84.5,113.5C 83.6987,116.572 81.6987,118.238 78.5,118.5C 77.8333,118.5 77.5,118.167 77.5,117.5C 76.8843,116.202 76.8843,115.202 77.5,114.5C 78.1667,114.5 78.5,114.167 78.5,113.5C 80.0269,113.573 81.0269,112.906 81.5,111.5C 82.1667,111.167 82.8333,110.833 83.5,110.5C 84.1667,110.5 84.5,110.167 84.5,109.5C 85.1667,109.5 85.5,109.167 85.5,108.5C 86.1667,108.5 86.5,108.167 86.5,107.5C 86.5,107.167 86.5,106.833 86.5,106.5C 88.5673,107.593 89.234,107.093 88.5,105C 89.4491,104.383 90.2825,104.549 91,105.5C 91.8159,104.177 92.9826,103.511 94.5,103.5 Z"/></g>
<g><path style="opacity:1" fill="#d3ae4f" d="M 91.5,109.5 C 91.8333,109.5 92.1667,109.5 92.5,109.5C 92.8333,109.5 93.1667,109.5 93.5,109.5C 92.4019,110.397 92.4019,111.23 93.5,112C 95.3091,114.238 97.6424,115.405 100.5,115.5C 99.1667,116.167 97.8333,116.833 96.5,117.5C 94.8007,117.527 93.4674,118.194 92.5,119.5C 92.1667,118.167 91.8333,118.167 91.5,119.5C 90.5,119.5 89.5,119.5 88.5,119.5C 86.8325,117.521 86.1658,115.188 86.5,112.5C 87.1667,112.5 87.5,112.167 87.5,111.5C 87.8333,111.5 88.1667,111.5 88.5,111.5C 89.1667,111.5 89.5,111.167 89.5,110.5C 89.8333,110.5 90.1667,110.5 90.5,110.5C 91.1667,110.5 91.5,110.167 91.5,109.5 Z"/></g>
<g><path style="opacity:1" fill="#e1c569" d="M 144.5,113.5 C 144.5,114.833 144.5,116.167 144.5,117.5C 137.833,117.5 131.167,117.5 124.5,117.5C 123.761,117.631 123.094,117.464 122.5,117C 123.5,116.667 124.5,116.333 125.5,116C 124.584,115.722 123.918,115.222 123.5,114.5C 130.443,113.573 137.443,113.24 144.5,113.5 Z"/></g>
<g><path style="opacity:1" fill="#bb9a5c" d="M 30.5,115.5 C 29.6236,115.369 28.9569,115.702 28.5,116.5C 29.6016,117.176 30.6016,117.842 31.5,118.5C 21.5161,117.787 11.5161,117.453 1.5,117.5C 1.33003,116.178 1.66337,115.011 2.5,114C 12.0465,113.216 21.3798,113.716 30.5,115.5 Z"/></g>
<g><path style="opacity:0.999" fill="#f6e490" d="M 50.5,108.5 C 50.8333,108.5 51.1667,108.5 51.5,108.5C 51.8333,108.5 52.1667,108.5 52.5,108.5C 53.1667,108.5 53.5,108.833 53.5,109.5C 53.8333,109.5 54.1667,109.5 54.5,109.5C 54.5,110.167 54.8333,110.5 55.5,110.5C 55.8333,110.5 56.1667,110.5 56.5,110.5C 58.1184,112.316 60.1184,113.649 62.5,114.5C 62.7031,116.044 63.3698,117.378 64.5,118.5C 64.24,119.905 63.9066,121.238 63.5,122.5C 62.8333,122.5 62.1667,122.5 61.5,122.5C 61.1583,121.662 60.4916,121.328 59.5,121.5C 58.6522,120.375 57.6522,120.375 56.5,121.5C 56.5,120.833 56.5,120.167 56.5,119.5C 57.552,119.649 58.552,119.483 59.5,119C 58.1667,118 56.8333,117 55.5,116C 56.1958,114.512 55.8625,113.012 54.5,111.5C 52.2732,112.263 50.9399,111.263 50.5,108.5 Z"/></g>
<g><path style="opacity:1" fill="#f9e381" d="M 69.5,107.5 C 72.4151,110.99 74.5818,114.99 76,119.5C 76.2784,118.584 76.7784,117.918 77.5,117.5C 77.5,118.167 77.8333,118.5 78.5,118.5C 76.7162,121.808 77.7162,123.475 81.5,123.5C 80.4863,124.674 79.153,125.34 77.5,125.5C 75.5231,122.007 73.6897,118.341 72,114.5C 70.841,113.434 70.0076,113.767 69.5,115.5C 68.7109,115.217 68.0442,114.717 67.5,114C 69.5785,112.73 69.9118,111.23 68.5,109.5C 68.3284,108.508 68.6618,107.842 69.5,107.5 Z"/></g>
<g><path style="opacity:0.004" fill="#000000" d="M 96.5,117.5 C 97.8333,118.167 97.8333,118.167 96.5,117.5 Z"/></g>
<g><path style="opacity:1" fill="#bc9958" d="M 123.5,114.5 C 123.918,115.222 124.584,115.722 125.5,116C 124.5,116.333 123.5,116.667 122.5,117C 123.094,117.464 123.761,117.631 124.5,117.5C 118.669,118.729 112.669,119.729 106.5,120.5C 107.091,119.849 107.757,119.182 108.5,118.5C 108.376,117.893 108.043,117.56 107.5,117.5C 112.551,115.656 117.884,114.656 123.5,114.5 Z"/></g>
<g><path style="opacity:0.004" fill="#000000" d="M 94.5,118.5 C 95.8333,119.167 95.8333,119.167 94.5,118.5 Z"/></g>
<g><path style="opacity:0.996" fill="#eac64f" d="M 84.5,113.5 C 85.7671,116.061 85.7671,118.728 84.5,121.5C 84.5,122.167 84.8333,122.5 85.5,122.5C 85.5,122.833 85.5,123.167 85.5,123.5C 84.8333,123.5 84.1667,123.5 83.5,123.5C 83.1667,122.167 82.8333,122.167 82.5,123.5C 82.1667,123.5 81.8333,123.5 81.5,123.5C 77.7162,123.475 76.7162,121.808 78.5,118.5C 81.6987,118.238 83.6987,116.572 84.5,113.5 Z"/></g>
<g><path style="opacity:0.004" fill="#000000" d="M 91.5,119.5 C 91.8333,119.5 92.1667,119.5 92.5,119.5C 92.3147,120.17 91.9813,120.17 91.5,119.5 Z"/></g>
<g><path style="opacity:1" fill="#f0d473" d="M 30.5,115.5 C 36.8133,115.914 42.8133,117.248 48.5,119.5C 49.0906,120.151 49.7573,120.818 50.5,121.5C 50.0431,122.298 49.3764,122.631 48.5,122.5C 42.6669,121.404 37.0002,120.07 31.5,118.5C 30.6016,117.842 29.6016,117.176 28.5,116.5C 28.9569,115.702 29.6236,115.369 30.5,115.5 Z"/></g>
<g><path style="opacity:1" fill="#cea958" d="M 107.5,117.5 C 108.043,117.56 108.376,117.893 108.5,118.5C 107.757,119.182 107.091,119.849 106.5,120.5C 101.348,122.46 96.0147,124.126 90.5,125.5C 88.2043,125.196 87.871,124.196 89.5,122.5C 95.2688,120.022 101.269,118.355 107.5,117.5 Z"/></g>
<g><path style="opacity:1" fill="#f9eea0" d="M 77.5,125.5 C 77.1667,126.167 76.8333,126.833 76.5,127.5C 76.1667,127.5 75.8333,127.5 75.5,127.5C 74.8333,127.5 74.5,127.833 74.5,128.5C 73.1779,128.33 72.0113,128.663 71,129.5C 70.7216,128.584 70.2216,127.918 69.5,127.5C 68.6935,126.272 67.6935,125.272 66.5,124.5C 65.6068,122.281 65.9401,120.115 67.5,118C 66.8333,117.667 66.1667,117.333 65.5,117C 67.0581,116.79 68.3915,116.29 69.5,115.5C 70.0076,113.767 70.841,113.434 72,114.5C 73.6897,118.341 75.5231,122.007 77.5,125.5 Z"/></g>
<g><path style="opacity:0.004" fill="#000000" d="M 46.5,123.5 C 47.8333,124.167 47.8333,124.167 46.5,123.5 Z"/></g>
<g><path style="opacity:0.997" fill="#e7da96" d="M 51.5,117.5 C 53.698,117.12 55.3646,117.787 56.5,119.5C 54.0673,120.548 54.0673,121.214 56.5,121.5C 57.3478,122.625 58.3478,122.625 59.5,121.5C 59.4088,123.698 60.0755,124.031 61.5,122.5C 63.0592,124.624 65.0592,126.291 67.5,127.5C 69.1166,130.076 68.7833,131.076 66.5,130.5C 66.1667,130.5 65.8333,130.5 65.5,130.5C 65.1667,129.167 64.8333,129.167 64.5,130.5C 62.2298,130.211 60.5631,129.211 59.5,127.5C 58.0697,126.463 56.403,125.796 54.5,125.5C 52.5,124.5 50.5,123.5 48.5,122.5C 49.3764,122.631 50.0431,122.298 50.5,121.5C 49.7573,120.818 49.0906,120.151 48.5,119.5C 49.5,119.5 50.5,119.5 51.5,119.5C 51.5,118.833 51.5,118.167 51.5,117.5 Z M 51.5,119.5 C 54.6034,118.203 54.9367,118.536 52.5,120.5C 51.8933,120.376 51.56,120.043 51.5,119.5 Z"/></g>
<g><path style="opacity:0.004" fill="#000000" d="M 54.5,125.5 C 53.8333,126.167 53.8333,126.167 54.5,125.5 Z"/></g>
<g><path style="opacity:1" fill="#e5cb76" d="M 85.5,111.5 C 85.8333,111.5 86.1667,111.5 86.5,111.5C 86.5,111.833 86.5,112.167 86.5,112.5C 86.1658,115.188 86.8325,117.521 88.5,119.5C 85.9511,120.831 86.2845,121.831 89.5,122.5C 87.871,124.196 88.2043,125.196 90.5,125.5C 89.5,126.167 88.5,126.833 87.5,127.5C 85.597,127.796 83.9303,128.463 82.5,129.5C 81.5084,129.328 80.8417,129.662 80.5,130.5C 79.8333,130.5 79.5,130.833 79.5,131.5C 78.8826,131.611 78.3826,131.944 78,132.5C 77.51,131.207 77.3433,129.873 77.5,128.5C 79.4365,127.046 81.1032,125.379 82.5,123.5C 82.8333,123.5 83.1667,123.5 83.5,123.5C 84.1667,124.833 84.8333,124.833 85.5,123.5C 88.1667,123.167 88.1667,122.833 85.5,122.5C 84.8333,122.5 84.5,122.167 84.5,121.5C 85.7671,118.728 85.7671,116.061 84.5,113.5C 84.5,113.167 84.5,112.833 84.5,112.5C 85.1667,112.5 85.5,112.167 85.5,111.5 Z"/></g>
<g><path style="opacity:0.008" fill="#000000" d="M 59.5,127.5 C 58.8333,128.167 58.8333,128.167 59.5,127.5 Z"/></g>
<g><path style="opacity:0.008" fill="#000000" d="M 87.5,127.5 C 88.8333,128.167 88.8333,128.167 87.5,127.5 Z"/></g>
<g><path style="opacity:0.004" fill="#000000" d="M 82.5,129.5 C 83.8333,130.167 83.8333,130.167 82.5,129.5 Z"/></g>
<g><path style="opacity:0.004" fill="#000000" d="M 64.5,130.5 C 64.8333,130.5 65.1667,130.5 65.5,130.5C 65.3147,131.17 64.9813,131.17 64.5,130.5 Z"/></g>
<g><path style="opacity:0.008" fill="#000000" d="M 80.5,130.5 C 81.8333,131.167 81.8333,131.167 80.5,130.5 Z"/></g>
<g><path style="opacity:0.004" fill="#000000" d="M 79.5,133.5 C 80.8333,134.167 80.8333,134.167 79.5,133.5 Z"/></g>
<g><path style="opacity:1" fill="#e8e1ab" d="M 67.5,127.5 C 68.1667,127.5 68.8333,127.5 69.5,127.5C 69.3433,128.873 69.51,130.207 70,131.5C 71.6665,130.66 71.8331,131.16 70.5,133C 72.3869,133.78 74.0536,133.613 75.5,132.5C 76.0967,132.265 76.4301,131.765 76.5,131C 75.9444,129.989 75.2778,129.156 74.5,128.5C 75.1667,128.5 75.5,128.167 75.5,127.5C 75.8333,127.5 76.1667,127.5 76.5,127.5C 76.5,128.167 76.8333,128.5 77.5,128.5C 77.3433,129.873 77.51,131.207 78,132.5C 78.3826,131.944 78.8826,131.611 79.5,131.5C 79.5,132.167 79.5,132.833 79.5,133.5C 78.8333,133.5 78.5,133.833 78.5,134.5C 77.8333,134.5 77.5,134.833 77.5,135.5C 76.8333,135.5 76.5,135.833 76.5,136.5C 75.8333,136.5 75.5,136.833 75.5,137.5C 73.3792,137.675 71.3792,137.341 69.5,136.5C 68.657,134.827 67.3237,133.66 65.5,133C 66.2524,132.329 66.5858,131.496 66.5,130.5C 68.7833,131.076 69.1166,130.076 67.5,127.5 Z M 69.5,127.5 C 70.2216,127.918 70.7216,128.584 71,129.5C 72.0113,128.663 73.1779,128.33 74.5,128.5C 75.2778,129.156 75.9444,129.989 76.5,131C 76.4301,131.765 76.0967,132.265 75.5,132.5C 74.0536,133.613 72.3869,133.78 70.5,133C 71.8331,131.16 71.6665,130.66 70,131.5C 69.51,130.207 69.3433,128.873 69.5,127.5 Z"/></g>
<g><path style="opacity:0.008" fill="#000000" d="M 78.5,134.5 C 78.8333,134.5 79.1667,134.5 79.5,134.5C 79.3147,135.17 78.9813,135.17 78.5,134.5 Z"/></g>
<g><path style="opacity:0.007" fill="#000000" d="M 77.5,135.5 C 77.8333,135.5 78.1667,135.5 78.5,135.5C 78.5,136.833 77.8333,137.5 76.5,137.5C 76.5,137.167 76.5,136.833 76.5,136.5C 77.1667,136.5 77.5,136.167 77.5,135.5 Z"/></g>
<g><path style="opacity:0.012" fill="#000000" d="M 69.5,136.5 C 68.8333,137.167 68.8333,137.167 69.5,136.5 Z"/></g>
<g><path style="opacity:0.004" fill="#000000" d="M 75.5,137.5 C 75.8333,137.5 76.1667,137.5 76.5,137.5C 76.3147,138.17 75.9813,138.17 75.5,137.5 Z"/></g>
</svg>
